<svg width="32" height="32" viewBox="0 0 32 32" xmlns="http://www.w3.org/2000/svg">
  <defs>
    <radialGradient id="pulseGradient" cx="50%" cy="50%" r="50%">
      <stop offset="0%" style="stop-color:#8B5CF6;stop-opacity:1" />
      <stop offset="100%" style="stop-color:#4C1D95;stop-opacity:1" />
    </radialGradient>
    <linearGradient id="goldGradient" x1="0%" y1="0%" x2="100%" y2="100%">
      <stop offset="0%" style="stop-color:#FCD34D;stop-opacity:1" />
      <stop offset="100%" style="stop-color:#F59E0B;stop-opacity:1" />
    </linearGradient>
  </defs>
  
  <!-- Background -->
  <rect width="32" height="32" fill="#0F0F23"/>
  
  <!-- Golden ring -->
  <circle cx="16" cy="16" r="12" fill="none" stroke="url(#goldGradient)" stroke-width="1"/>
  
  <!-- Character head -->
  <circle cx="16" cy="12" r="4" fill="#F3F4F6"/>
  
  <!-- Character ears -->
  <circle cx="13" cy="10" r="1.5" fill="#F3F4F6"/>
  <circle cx="19" cy="10" r="1.5" fill="#F3F4F6"/>
  
  <!-- Purple mask/visor -->
  <ellipse cx="16" cy="12" rx="2.5" ry="1.8" fill="#8B5CF6"/>
  
  <!-- Yellow eyes -->
  <ellipse cx="15" cy="11.5" rx="0.6" ry="0.8" fill="#FCD34D"/>
  <ellipse cx="17" cy="11.5" rx="0.6" ry="0.8" fill="#FCD34D"/>
  
  <!-- Pink pupils -->
  <circle cx="15" cy="11.5" r="0.2" fill="#EC4899"/>
  <circle cx="17" cy="11.5" r="0.2" fill="#EC4899"/>
  
  <!-- Character body -->
  <ellipse cx="16" cy="18" rx="3" ry="4" fill="#F3F4F6"/>
  
  <!-- Arms -->
  <ellipse cx="12" cy="18" rx="1" ry="2.5" fill="#F3F4F6" transform="rotate(-20 12 18)"/>
  <ellipse cx="20" cy="18" rx="1" ry="2.5" fill="#F3F4F6" transform="rotate(20 20 18)"/>
  
  <!-- Purple cylinders -->
  <rect x="11" y="15" width="1.5" height="4" rx="0.5" fill="#8B5CF6"/>
  <rect x="19.5" y="15" width="1.5" height="4" rx="0.5" fill="#8B5CF6"/>
  
  <!-- Play button at intersection -->
  <circle cx="16" cy="18" r="1" fill="#8B5CF6"/>
  <polygon points="15.5,17.5 15.5,18.5 16.5,18" fill="#FCD34D"/>
</svg> 